<svg width="100" height="27" viewBox="0 0 100 27" fill="none" xmlns="http://www.w3.org/2000/svg">
<g opacity="0.8">
<path d="M78.1522 18.0032C78.1522 22.6044 74.4 26.3344 69.7714 26.3344C65.1428 26.3344 61.3906 22.6044 61.3906 18.0032C61.3906 13.4019 65.1428 9.67188 69.7714 9.67188C74.4 9.67188 78.1522 13.4019 78.1522 18.0032Z" fill="#57B8FF"/>
<path d="M15.7415 11.1074C15.7415 10.4043 15.605 9.74112 15.3317 9.1179C15.0584 8.4787 14.6887 7.92738 14.2225 7.46395C13.7403 7.00053 13.1856 6.63299 12.5587 6.36133C11.9157 6.08966 11.2406 5.95384 10.5332 5.95384C10.5332 4.81925 10.5332 3.10938 10.5332 0.824219C11.9639 0.824219 13.3142 1.08789 14.5841 1.61524C15.8541 2.15856 16.9633 2.89365 17.9118 3.82049C18.8602 4.76331 19.6077 5.85795 20.1542 7.10441C20.7008 8.35085 20.974 9.68519 20.974 11.1074C20.106 11.1074 19.2379 11.1074 18.3699 11.1074C17.5018 11.1074 16.6257 11.1074 15.7415 11.1074ZM10.5332 5.95384C9.80988 5.95384 9.12668 6.08966 8.48368 6.36133C7.85675 6.63299 7.30216 7.00053 6.8199 7.46395C6.35373 7.92738 5.984 8.4787 5.71071 9.1179C5.43744 9.74112 5.3008 10.4043 5.3008 11.1074C4.12732 11.1074 2.38317 11.1074 0.0683594 11.1074C0.0683594 10.1167 0.204998 9.15785 0.478275 8.231C0.751551 7.32014 1.13735 6.47319 1.63568 5.69016C2.55196 4.21999 3.79779 3.03746 5.37315 2.14258C6.93243 1.26367 8.65247 0.824219 10.5332 0.824219C10.5332 1.67116 10.5332 2.52611 10.5332 3.38903C10.5332 4.25196 10.5332 5.10689 10.5332 5.95384ZM31.4389 11.1074C31.4389 10.4043 31.3023 9.74112 31.0291 9.1179C30.7557 8.4787 30.3779 7.92738 29.8957 7.46395C29.4296 7.00053 28.875 6.63299 28.2319 6.36133C27.605 6.08966 26.9298 5.95384 26.2065 5.95384C26.2065 4.81925 26.2065 3.10938 26.2065 0.824219C27.6533 0.824219 29.0115 1.08789 30.2815 1.61524C31.5514 2.15856 32.6607 2.89365 33.6091 3.82049C34.5414 4.76331 35.2889 5.85795 35.8515 7.10441C36.3981 8.35085 36.6714 9.68519 36.6714 11.1074C35.7872 11.1074 34.9112 11.1074 34.0431 11.1074C33.175 11.1074 32.307 11.1074 31.4389 11.1074ZM26.2065 5.95384C25.4831 5.95384 24.8079 6.08966 24.181 6.36133C23.5379 6.63299 22.9834 7.00053 22.5172 7.46395C22.035 7.92738 21.6572 8.4787 21.384 9.1179C21.1107 9.74112 20.974 10.4043 20.974 11.1074C19.8166 11.1074 18.0725 11.1074 15.7415 11.1074C15.7415 10.1167 15.8782 9.15785 16.1515 8.231C16.4247 7.32014 16.8105 6.47319 17.3089 5.69016C18.2413 4.21999 19.4871 3.03746 21.0463 2.14258C22.6056 1.26367 24.3257 0.824219 26.2065 0.824219C26.2065 1.67116 26.2065 2.52611 26.2065 3.38903C26.2065 4.25196 26.2065 5.10689 26.2065 5.95384ZM0.0683594 11.1074C1.22577 11.1074 2.96991 11.1074 5.3008 11.1074C5.3008 13.3925 5.3008 16.8283 5.3008 21.4146C4.12732 21.4146 2.38317 21.4146 0.0683594 21.4146C0.0683594 19.1135 0.0683594 15.6777 0.0683594 11.1074ZM31.4389 11.1074C32.5963 11.1074 34.3404 11.1074 36.6714 11.1074C36.6714 13.3925 36.6714 16.8203 36.6714 21.3907C35.4978 21.3907 33.7537 21.3907 31.4389 21.3907C31.4389 19.1055 31.4389 15.6777 31.4389 11.1074ZM15.7415 11.1074C16.9151 11.1074 18.6592 11.1074 20.974 11.1074C20.974 13.3925 20.974 16.8203 20.974 21.3907C19.8166 21.3907 18.0725 21.3907 15.7415 21.3907C15.7415 19.1055 15.7415 15.6777 15.7415 11.1074Z" fill="#020A18"/>
<path d="M52.7004 21.2706C51.543 21.2706 49.815 21.2706 47.5162 21.2706C47.5162 20.12 47.5162 18.4022 47.5162 16.117C48.6736 16.117 50.4017 16.117 52.7004 16.117C52.7004 17.2516 52.7004 18.9695 52.7004 21.2706ZM52.7004 5.80984C51.543 5.80984 49.815 5.80984 47.5162 5.80984C47.5162 4.65927 47.5162 2.94141 47.5162 0.65625C48.6736 0.65625 50.4017 0.65625 52.7004 0.65625C52.7004 1.80682 52.7004 3.52468 52.7004 5.80984ZM42.3561 10.9634C42.3561 11.6825 42.4847 12.3537 42.7419 12.9769C43.0152 13.6001 43.385 14.1435 43.8511 14.6069C44.3334 15.0703 44.8879 15.4379 45.5148 15.7096C46.1418 15.9812 46.8089 16.117 47.5162 16.117C47.5162 17.2516 47.5162 18.9695 47.5162 21.2706C46.0856 21.2706 44.7432 20.999 43.4894 20.4556C42.2356 19.9122 41.1425 19.1772 40.2101 18.2504C39.2616 17.3075 38.5222 16.2129 37.9918 14.9665C37.4452 13.72 37.1719 12.3856 37.1719 10.9634C38.0399 10.9634 38.9 10.9634 39.752 10.9634C40.62 10.9634 41.488 10.9634 42.3561 10.9634ZM47.5162 5.80984C46.8089 5.80984 46.1418 5.94566 45.5148 6.21733C44.8879 6.48899 44.3334 6.85653 43.8511 7.31996C43.385 7.78338 43.0152 8.3347 42.7419 8.9739C42.4847 9.59713 42.3561 10.2603 42.3561 10.9634C41.1987 10.9634 39.4706 10.9634 37.1719 10.9634C37.1719 9.97265 37.3085 9.01384 37.5819 8.08701C37.8551 7.17614 38.2329 6.32919 38.7151 5.54616C39.6314 4.076 40.8692 2.89347 42.4284 1.99858C43.9716 1.11967 45.6676 0.68022 47.5162 0.68022C47.5162 1.52716 47.5162 2.3821 47.5162 3.24502C47.5162 4.10796 47.5162 4.96289 47.5162 5.80984Z" fill="#020A18"/>
<path d="M68.7062 21.2706C67.5488 21.2706 65.8207 21.2706 63.5221 21.2706C63.5221 20.12 63.5221 18.4022 63.5221 16.117C64.6795 16.117 66.4075 16.117 68.7062 16.117C68.7062 17.2516 68.7062 18.9695 68.7062 21.2706ZM68.7062 5.80984C67.5488 5.80984 65.8207 5.80984 63.5221 5.80984C63.5221 4.65927 63.5221 2.94141 63.5221 0.65625C64.6795 0.65625 66.4075 0.65625 68.7062 0.65625C68.7062 1.80682 68.7062 3.52468 68.7062 5.80984ZM58.3619 10.9634C58.3619 11.6825 58.4904 12.3537 58.7477 12.9769C59.0209 13.6001 59.3907 14.1435 59.8569 14.6069C60.3391 15.0703 60.8938 15.4379 61.5207 15.7096C62.1476 15.9812 62.8148 16.117 63.5221 16.117C63.5221 17.2516 63.5221 18.9695 63.5221 21.2706C62.0913 21.2706 60.7491 20.999 59.4953 20.4556C58.2413 19.9122 57.1482 19.1772 56.2159 18.2504C55.2675 17.3075 54.528 16.2129 53.9975 14.9665C53.4509 13.72 53.1777 12.3856 53.1777 10.9634C54.0458 10.9634 54.9058 10.9634 55.7577 10.9634C56.6258 10.9634 57.4939 10.9634 58.3619 10.9634ZM63.5221 5.80984C62.8148 5.80984 62.1476 5.94566 61.5207 6.21733C60.8938 6.48899 60.3391 6.85653 59.8569 7.31996C59.3907 7.78338 59.0209 8.3347 58.7477 8.9739C58.4904 9.59713 58.3619 10.2603 58.3619 10.9634C57.2045 10.9634 55.4764 10.9634 53.1777 10.9634C53.1777 9.97265 53.3143 9.01384 53.5876 8.08701C53.8608 7.17614 54.2386 6.32919 54.7209 5.54616C55.6372 4.076 56.875 2.89347 58.4343 1.99858C59.9775 1.11967 61.6734 0.68022 63.5221 0.68022C63.5221 1.52716 63.5221 2.3821 63.5221 3.24502C63.5221 4.10796 63.5221 4.96289 63.5221 5.80984Z" fill="#020A18"/>
<path d="M79.5723 12.1787C80.1429 12.1787 81.007 12.1787 82.1644 12.1787C82.1644 14.4719 82.1644 17.9115 82.1644 22.4979C81.5856 22.4979 80.7216 22.4979 79.5723 22.4979C79.5723 20.2047 79.5723 16.765 79.5723 12.1787ZM84.7444 22.4979C84.7444 22.1383 84.6761 21.8027 84.5394 21.4911C84.4108 21.1795 84.226 20.9078 83.9849 20.6761C83.7518 20.4444 83.4784 20.2607 83.165 20.1248C82.8515 19.989 82.5179 19.9211 82.1644 19.9211C82.1644 19.3538 82.1644 18.4949 82.1644 17.3443C82.8797 17.3443 83.5508 17.4802 84.1777 17.7518C84.8047 18.0235 85.3513 18.3909 85.8174 18.8545C86.2916 19.3259 86.6614 19.8731 86.9266 20.4963C87.1999 21.1196 87.3365 21.7868 87.3365 22.4979C86.9025 22.4979 86.4725 22.4979 86.0465 22.4979C85.6124 22.4979 85.1784 22.4979 84.7444 22.4979ZM84.7444 17.3323C84.7444 16.9808 84.6761 16.6492 84.5394 16.3376C84.4108 16.018 84.226 15.7422 83.9849 15.5105C83.7518 15.2788 83.4784 15.0951 83.165 14.9592C82.8515 14.8234 82.5179 14.7555 82.1644 14.7555C82.1644 14.1882 82.1644 13.3333 82.1644 12.1907C82.8797 12.1907 83.5508 12.3225 84.1777 12.5862C84.8047 12.8579 85.3513 13.2255 85.8174 13.6889C86.2916 14.1603 86.6614 14.7075 86.9266 15.3308C87.1999 15.954 87.3365 16.6212 87.3365 17.3323C86.9025 17.3323 86.4725 17.3323 86.0465 17.3323C85.6124 17.3323 85.1784 17.3323 84.7444 17.3323Z" fill="#020A18"/>
<path d="M99.0555 17.332C99.0555 18.0431 98.919 18.7104 98.6456 19.3336C98.3723 19.9647 98.0027 20.5121 97.5365 20.9755C97.0703 21.4389 96.5197 21.8065 95.8848 22.0781C95.2579 22.3498 94.5866 22.4856 93.8713 22.4856C93.8713 21.9103 93.8713 21.0514 93.8713 19.9088C94.2331 19.9088 94.5706 19.8409 94.884 19.7051C95.1975 19.5692 95.4708 19.3855 95.7039 19.1538C95.937 18.9221 96.1218 18.6503 96.2585 18.3387C96.3951 18.0271 96.4634 17.6916 96.4634 17.332C96.8975 17.332 97.3275 17.332 97.7534 17.332C98.1875 17.332 98.6216 17.332 99.0555 17.332ZM93.8713 22.4856C92.947 22.4856 92.0991 22.2618 91.3275 21.8145C90.5479 21.367 89.929 20.7757 89.4708 20.0407C89.2296 19.6491 89.0407 19.2257 88.9042 18.7702C88.7675 18.3148 88.6992 17.8354 88.6992 17.332C89.2698 17.332 90.1339 17.332 91.2913 17.332C91.2913 17.6916 91.3555 18.0271 91.4842 18.3387C91.6208 18.6503 91.8056 18.9221 92.0387 19.1538C92.2798 19.3855 92.5572 19.5692 92.8707 19.7051C93.1842 19.8409 93.5177 19.9088 93.8713 19.9088C93.8713 20.3403 93.8713 20.7678 93.8713 21.1913C93.8713 21.6227 93.8713 22.0542 93.8713 22.4856ZM88.6992 12.1904C89.2698 12.1904 90.1339 12.1904 91.2913 12.1904C91.2913 13.3331 91.2913 15.0468 91.2913 17.332C90.7126 17.332 89.8485 17.332 88.6992 17.332C88.6992 16.1894 88.6992 14.4755 88.6992 12.1904ZM96.4634 12.1904C97.0422 12.1904 97.9061 12.1904 99.0555 12.1904C99.0555 13.3331 99.0555 15.0468 99.0555 17.332C98.4769 17.332 97.6128 17.332 96.4634 17.332C96.4634 16.1894 96.4634 14.4755 96.4634 12.1904Z" fill="#020A18"/>
</g>
</svg>
