<svg width="50" height="50" viewBox="0 0 50 50" fill="none" xmlns="http://www.w3.org/2000/svg">
<path d="M24.9975 0C38.7997 0.015156 49.9848 11.1992 50 25V25.5C49.7251 39.2386 38.4124 50.1801 24.6708 49.9978C10.9292 49.8154 -0.0892462 38.5778 0.000545502 24.8366C0.090337 11.0955 11.2547 0.0027485 24.9975 0ZM24.9975 45C36.0443 45 44.9995 36.0457 44.9995 25C44.9995 13.9543 36.0443 5 24.9975 5C13.9507 5 4.99551 13.9543 4.99551 25C5.00791 36.0405 13.9558 44.9876 24.9975 45ZM28.6229 12.5L32.1582 16.0375L23.3198 24.875L32.1582 33.7125L28.6229 37.25L16.2466 24.875L28.6204 12.5H28.6229Z" fill="#57B8FF"/>
</svg>
