<svg width="103" height="120" viewBox="0 0 103 120" fill="none" xmlns="http://www.w3.org/2000/svg">
<path fill-rule="evenodd" clip-rule="evenodd" d="M34.9227 44.2033V88.4066H36.9883H39.054L39.0565 63.5953C39.0581 49.9492 39.1161 38.7052 39.1856 38.609C39.2552 38.5127 39.5058 38.3221 39.7425 38.1854C39.9792 38.0487 41.2072 37.3205 42.4712 36.5672C43.7354 35.8137 44.8393 35.2409 44.9241 35.2943C45.0143 35.351 45.0787 46.4338 45.0787 61.899V88.4066H51.0174H56.956L56.954 66.2208L56.9517 44.0351L55.632 43.2474C54.9061 42.8142 53.9194 42.2368 53.4393 41.9642C52.9594 41.6915 52.2373 41.2748 51.835 41.0378L51.1034 40.6072L51.0988 28.6684L51.0941 16.7295L47.8852 13.4039C46.1203 11.5747 42.4817 7.81061 39.7995 5.0391L34.9227 0V44.2033ZM62.4643 52.3445V88.4066H67.8866H73.3089V74.4293V60.452L74.2871 59.595C75.5559 58.4834 76.058 57.9443 76.2264 57.5128C76.3322 57.2413 76.3629 34.0131 76.2589 32.709C76.2458 32.5445 75.6348 31.7133 74.9011 30.8615C74.1675 30.0098 73.141 28.8066 72.6203 28.1879C72.0996 27.569 71.3617 26.7069 70.9804 26.2719C69.861 24.9952 68.2774 23.1353 67.6284 22.3354C67.297 21.9269 65.9997 20.3978 64.7451 18.9374L62.4643 16.2823V52.3445ZM20.8076 68.6311V88.4137L24.3794 88.3663L27.9512 88.319L27.9951 70.0905L28.0389 51.862L26.9171 51.4053C26.3 51.1541 25.4668 50.7949 25.0657 50.6071C23.616 49.9282 21.0894 48.8485 20.9502 48.8485C20.8717 48.8485 20.8076 57.7507 20.8076 68.6311ZM80.8828 72.3026V88.4066H85.5317H90.1804L90.1363 75.8672L90.092 63.3276L87.2518 61.1374C85.6897 59.9328 83.6175 58.3288 82.6472 57.5728L80.8828 56.1985V72.3026ZM12.8257 68.7429C12.7725 68.92 12.7457 73.3973 12.7662 78.6921L12.8034 88.319H14.955H17.1067L17.1511 78.4733L17.1957 68.6275L15.4298 68.6251C14.4586 68.6239 13.4972 68.5773 13.2932 68.5217C13.0283 68.4494 12.8949 68.5124 12.8257 68.7429ZM71.7288 90.2157C70.6471 90.5257 69.8066 91.2103 69.3628 92.1423C69.0415 92.8173 68.9838 93.3307 68.8951 96.3043C68.7184 102.236 69.0761 103.655 70.9876 104.606C72.7506 105.483 75.2936 105.141 76.4245 103.874C77.3418 102.846 77.4401 102.25 77.4401 97.7116C77.4401 92.9878 77.3055 92.1768 76.3689 91.2549C75.2969 90.1998 73.3247 89.7582 71.7288 90.2157ZM12.7173 97.5677V104.839L13.1907 104.782C13.4511 104.75 14.2643 104.716 14.9981 104.705L16.3321 104.685V101.797V98.9087L17.494 98.9083C18.8178 98.9082 19.6373 98.5721 20.1929 97.8019C20.514 97.357 20.5494 97.0603 20.5494 94.8263C20.5494 90.7928 20.1805 90.4599 15.6005 90.3598L14.7381 90.2966H12.7173V97.5677ZM21.7831 90.4487C21.72 90.5128 21.6683 93.7422 21.6683 97.6251V104.685L24.5085 104.716C26.0707 104.733 27.523 104.753 27.7361 104.76C28.1065 104.772 28.1234 104.711 28.1234 103.372V101.972L26.7714 101.884L25.4195 101.797L25.4288 100.44C25.4339 99.6941 25.442 99.005 25.4467 98.9087C25.4515 98.8107 25.9512 98.7337 26.5814 98.7337H27.7075L27.6572 97.3771L27.607 96.0206H26.5742H25.5414L25.4914 94.5766L25.4413 93.1325H26.6533H27.8652V91.7322V90.3319H24.8816C23.2404 90.3319 21.8461 90.3845 21.7831 90.4487ZM29.2423 97.5588V104.786L30.8287 104.753L32.4149 104.721L32.4414 104.221C32.456 103.947 32.4858 101.95 32.5077 99.7839L32.5471 95.8456L33.1294 99.9589C33.4498 102.221 33.7484 104.23 33.7933 104.422C33.8646 104.729 34.0101 104.77 34.9582 104.757L36.0416 104.742L36.2363 103.357C36.3433 102.595 36.6145 100.593 36.8388 98.9087L37.2465 95.8456L37.3326 100.309L37.4187 104.772H39.0108H40.603V97.5522L40.6032 90.3319H38.2895C37.0169 90.3319 35.933 90.4025 35.8805 90.4888C35.8281 90.5749 35.6264 91.9337 35.4324 93.5081C35.2384 95.0826 35.0534 96.4494 35.0212 96.5457C34.9141 96.8669 34.7881 96.2172 34.4122 93.4033C34.207 91.8674 34.0009 90.5481 33.9543 90.4715C33.9078 90.3946 32.8285 90.3319 31.5559 90.3319H29.2423V97.5588ZM42.1526 97.5522L42.1527 104.772H43.9578H45.7629L45.808 98.9962L45.8533 93.22L47.1874 93.1689L48.5214 93.1178V91.7249V90.3319H45.3369H42.1524L42.1526 97.5522ZM49.5542 97.5716V104.811L51.1465 104.776L52.7387 104.742L53.1159 103.532C53.3231 102.866 53.7491 101.495 54.0626 100.484L54.6322 98.6461L54.7183 101.709L54.8043 104.772H56.3109H57.8172L57.817 97.5522L57.8167 90.3319H56.2864H54.7561L53.9509 92.9137C52.6048 97.2296 52.6717 97.1977 52.6616 93.5263L52.6526 90.3319H51.1034H49.5542V97.5716ZM59.3659 97.5522L59.3661 104.772H61.1733H62.9808V101.753C62.9808 98.9349 63.0019 98.7337 63.2983 98.7337C64.002 98.7337 64.1855 99.2584 64.1898 101.285C64.1936 103.063 64.3575 104.393 64.6038 104.643C64.661 104.701 65.4481 104.754 66.3532 104.761L67.9985 104.772L67.8792 104.247C67.8134 103.958 67.7387 102.729 67.7129 101.515C67.6842 100.168 67.5816 99.1467 67.4497 98.8963C67.1321 98.2929 66.5875 97.8858 65.9184 97.7512L65.3271 97.6323L66.0239 97.3516C67.5294 96.7451 67.6974 96.3801 67.7239 93.6576C67.7358 92.4542 67.8028 91.2138 67.8727 90.9008L68 90.3319H66.3572C64.3201 90.3319 64.3191 90.3333 64.232 93.1325C64.1976 94.2396 64.1342 95.3171 64.0912 95.527C63.9964 95.9903 63.5619 96.4582 63.2267 96.4582C63.0229 96.4582 62.9808 95.9331 62.9808 93.3951V90.3319H61.1733H59.3659V97.5522ZM78.8959 90.5511C78.8504 90.6715 78.8334 93.9121 78.8582 97.7522L78.9033 104.734L80.4928 104.776L82.0821 104.817L82.128 100.244L82.1738 95.6705L82.4899 97.946C82.6637 99.1975 82.91 100.891 83.0373 101.709C83.1643 102.528 83.3144 103.552 83.3707 103.985L83.4729 104.772L84.4932 104.744C85.7312 104.71 85.8747 104.631 85.8747 103.983C85.8747 103.424 86.8709 95.9501 86.9826 95.6705C87.021 95.5743 87.0587 97.5837 87.0661 100.136L87.0797 104.776L88.6719 104.757L90.2642 104.738V97.5788V90.4195L87.9171 90.371C85.153 90.3137 85.5268 89.8559 85.0194 93.9212C84.8294 95.4425 84.6343 96.7276 84.5858 96.7769C84.5374 96.8263 84.4977 96.7475 84.4977 96.6019C84.4977 96.4564 84.304 95.021 84.0673 93.4124C83.8306 91.8036 83.637 90.4524 83.637 90.4097C83.637 90.3669 82.5888 90.3319 81.3078 90.3319C79.6014 90.3319 78.9565 90.3906 78.8959 90.5511ZM73.6996 93.3091C73.7774 93.7415 73.8182 95.9688 73.7902 98.2588C73.7361 102.672 73.6764 102.972 72.9309 102.566C72.6432 102.41 72.6203 102.045 72.6203 97.6248C72.6203 92.7252 72.6701 92.3491 73.3008 92.4725C73.4559 92.5029 73.6142 92.8351 73.6996 93.3091ZM17.3305 92.9925C17.5866 93.2529 17.6083 95.6457 17.3589 96.1197C17.2567 96.3138 16.9997 96.4582 16.7564 96.4582C16.3325 96.4582 16.3321 96.457 16.3321 94.6203C16.3321 92.8192 16.34 92.7824 16.728 92.7824C16.9458 92.7824 17.2169 92.877 17.3305 92.9925ZM10.3935 98.9117C10.2041 98.9966 9.11966 99.4341 7.98357 99.8843C4.07403 101.433 1.58358 103.097 0.526844 104.866C0.0112992 105.729 -0.0382757 105.929 0.0183567 106.912C0.0717186 107.839 0.182746 108.151 0.764046 109.012C3.26242 112.712 12.4019 116.17 24.4225 117.965C29.7764 118.764 30.7218 118.878 34.6645 119.203C47.8578 120.291 60.5013 120.264 70.899 119.127C87.7312 117.285 100.088 112.776 102.454 107.612C103.052 106.306 103.135 105.608 102.819 104.527C102.318 102.812 100.457 101.506 96.6332 100.189C94.8981 99.5911 92.0361 98.7333 91.7797 98.7342C91.7036 98.7344 92.2222 99.1277 92.9323 99.6079C95.3771 101.262 96.5476 102.748 96.5464 104.197C96.5431 108.005 88.1526 110.961 72.3046 112.736C59.6575 114.153 38.6987 114.116 26.7463 112.657C20.3544 111.877 14.7886 110.68 11.2242 109.319C8.9026 108.433 6.79377 106.856 6.35861 105.68C6.08922 104.952 6.13656 103.861 6.46878 103.136C6.85643 102.289 8.74578 100.388 10.1118 99.4698C11.113 98.797 11.2485 98.5285 10.3935 98.9117Z" fill="#57B8FF"/>
<path fill-rule="evenodd" clip-rule="evenodd" d="M71.0497 90.3516C70.0843 90.8366 69.3291 91.7635 69.0642 92.7886C68.8081 93.7795 68.7318 101.143 68.9623 102.622C69.1383 103.752 69.9841 104.841 71.1884 105.489C72.8157 106.365 74.586 106.103 75.8811 104.795C77.2184 103.445 77.2827 103.142 77.2869 98.1675C77.2912 93.2146 77.1513 92.3358 76.1849 91.2411C75.8623 90.8759 75.3158 90.4471 74.9704 90.2884C74.076 89.8775 71.9247 89.9121 71.0497 90.3516ZM22.0812 90.4448C21.942 90.6291 21.9 92.7975 21.932 98.1083L21.9768 105.515H25.14H28.3032V104.104V102.694L26.976 102.6C26.2459 102.548 25.6497 102.442 25.6509 102.365C25.6519 102.287 25.653 101.547 25.653 100.719V99.2147H26.7715H27.8901L27.8402 97.7572L27.7903 96.2997H26.7644H25.7385L25.6889 94.7482L25.6391 93.1967H26.843H28.0468V91.6922V90.1878H25.1609C22.9295 90.1878 22.2312 90.2461 22.0812 90.4448ZM29.4555 97.8512L29.5001 105.515L30.9963 105.569L32.4924 105.623L32.4991 102.748C32.5068 99.4715 32.6104 96.3894 32.7167 96.2724C32.7562 96.2288 32.8821 96.8942 32.9963 97.751C33.1105 98.6078 33.2714 99.8164 33.3536 100.437C33.4359 101.058 33.5816 102.327 33.6772 103.258C33.7727 104.189 33.8531 104.966 33.8557 104.984C33.8582 105.003 33.9812 105.151 34.1289 105.313C34.3052 105.507 34.7075 105.609 35.2984 105.609H36.1992L36.4155 103.775C36.5345 102.767 36.6998 101.307 36.7831 100.531C36.8664 99.7553 37.035 98.4436 37.1579 97.6161L37.3812 96.1117L37.5007 98.2744C37.5666 99.4638 37.6208 101.601 37.6211 103.023L37.622 105.609H39.1627H40.7035L40.6589 97.9452L40.6142 90.2818L38.4591 90.2293C36.7737 90.1883 36.2608 90.2344 36.105 90.4409C35.942 90.6568 35.229 95.7967 35.2283 96.7605C35.2282 96.9273 35.1699 96.9638 35.0779 96.8545C34.9083 96.6527 34.5959 94.6209 34.3768 92.294C34.296 91.4355 34.1373 90.6103 34.0241 90.4604C33.8639 90.2481 33.3311 90.1878 31.6146 90.1878H29.4109L29.4555 97.8512ZM42.3167 90.4232C42.2716 90.5528 42.2547 94.0012 42.2793 98.0867L42.3241 105.515H44.0339H45.7438L45.8293 99.4027L45.9148 93.2908L47.2399 93.2358L48.5651 93.1809V91.6843V90.1878H45.482C43.1705 90.1878 42.3783 90.2466 42.3167 90.4232ZM53.9858 93.05C53.5346 94.6305 53.0781 96.169 52.9712 96.4692C52.7983 96.9542 52.7626 96.975 52.6492 96.6572C52.5791 96.4605 52.5164 94.9669 52.5097 93.3378L52.4977 90.3758H51.0425H49.5871L49.6319 97.9452L49.6765 105.515H51.2044H52.7325L52.8871 104.856C52.9721 104.494 53.1027 104.114 53.1774 104.01C53.2521 103.907 53.3674 103.544 53.4335 103.203C53.6085 102.304 54.3372 99.8245 54.5381 99.4454C54.6585 99.2182 54.7117 100.098 54.7154 102.372L54.7206 105.623L56.2167 105.569L57.7128 105.515V97.8982V90.2818L56.2594 90.2291L54.8061 90.1767L53.9858 93.05ZM59.4512 90.3132C59.3885 90.382 59.3372 93.8517 59.3372 98.0237V105.609H61.1325H62.9279V102.412V99.2147H63.3345C63.558 99.2147 63.8199 99.3205 63.9164 99.4497C64.0126 99.5791 64.1183 100.84 64.151 102.251C64.2279 105.579 64.2477 105.609 66.3926 105.609H67.9236L67.7988 105.092C67.7302 104.807 67.6546 103.51 67.6309 102.209C67.604 100.741 67.505 99.673 67.3699 99.3956C67.0517 98.7415 66.5126 98.3041 65.8459 98.1591L65.2586 98.0314L65.9507 97.7297C67.4582 97.0728 67.6073 96.7071 67.6459 93.5728C67.6632 92.1765 67.7051 90.9071 67.7391 90.7519C67.7899 90.5208 67.5361 90.4601 66.337 90.4161C64.2806 90.3405 64.2443 90.3942 64.1284 93.6979C64.0501 95.9281 63.9989 96.2693 63.7074 96.5034C62.9638 97.1005 62.9279 96.9613 62.9279 93.4788V90.1878H61.2466C60.3217 90.1878 59.5138 90.2442 59.4512 90.3132ZM78.8356 90.5515C78.7222 90.7845 78.6586 93.5574 78.6586 98.2619V105.609H80.283H81.9073L81.9289 100.766C81.9497 96.0573 81.9569 95.9625 82.1864 97.3341C82.5926 99.7615 82.758 100.946 82.9344 102.694C83.2215 105.537 83.2051 105.505 84.4357 105.571C85.6297 105.634 85.5999 105.677 85.7232 103.728C85.7897 102.678 86.6518 96.2681 86.7729 95.9236C86.8091 95.8202 86.845 97.9571 86.8524 100.672L86.8659 105.609H88.3973H89.9288L89.9789 102.177C90.0066 100.289 90.0071 96.8615 89.9801 94.5602L89.9312 90.3758H87.6634H85.3954L85.1942 91.4572C85.0834 92.052 84.9115 93.3464 84.8124 94.3341C84.7132 95.3216 84.5716 96.3781 84.4976 96.6822C84.381 97.1624 84.3369 97.0503 84.1616 95.8269C83.9561 94.3939 83.4462 90.4367 83.4462 90.2761C83.4462 90.2274 82.4487 90.1878 81.2294 90.1878C79.2128 90.1878 78.9966 90.2207 78.8356 90.5515ZM13 97.9804V105.609H14.7954H16.5907V102.506V99.4027L17.7449 99.4023C19.0597 99.4021 19.8738 99.0411 20.4257 98.2136C20.7431 97.7376 20.7799 97.4157 20.7799 95.1106C20.7799 92.2803 20.6176 91.6896 19.6137 90.8657C19.1729 90.5039 18.8686 90.4648 16.0658 90.411L13 90.3521V97.9804ZM73.5752 93.3865C73.6525 93.851 73.693 96.244 73.6651 98.7044C73.6114 103.446 73.5521 103.768 72.8116 103.332C72.5258 103.164 72.5031 102.772 72.5031 98.0233C72.5031 92.7591 72.5525 92.355 73.179 92.4875C73.3331 92.5203 73.4904 92.8772 73.5752 93.3865ZM17.5824 93.0463C17.7083 93.1847 17.7876 93.8611 17.7876 94.7952C17.7876 96.422 17.646 96.7699 16.984 96.7699C16.5986 96.7699 16.5907 96.7304 16.5907 94.7952C16.5907 92.8601 16.5986 92.8206 16.984 92.8206C17.2003 92.8206 17.4696 92.9222 17.5824 93.0463Z" fill="white"/>
</svg>
